<?xml version="1.0" encoding="UTF-8"?>
<svg id="Layer_1" xmlns="http://www.w3.org/2000/svg" version="1.1" viewBox="0 0 110 135">
  <!-- Generator: Adobe Illustrator 29.8.2, SVG Export Plug-In . SVG Version: 2.1.1 Build 3)  -->
  <defs>
    <style>
      .st0 {
        fill: #fff;
        fill-rule: evenodd;
      }
    </style>
  </defs>
  <path class="st0" d="M78.1,53.2h-2.5v-12.6c0-11.3-9.2-20.6-20.5-20.6s-20.6,9.2-20.6,20.6v12.6h-2.5c-4,0-7.3,3.3-7.3,7.3v32.2c0,4,3.3,7.3,7.3,7.3h46.2c4,0,7.3-3.3,7.3-7.3v-32.2c0-4-3.3-7.3-7.3-7.3h0ZM43.6,40.6c0-6.3,5.1-11.4,11.4-11.4s11.4,5.1,11.4,11.4v12.6h-22.8v-12.6ZM58.1,76.1v9.4c0,1.7-1.4,3.1-3.1,3.1s-3.1-1.4-3.1-3.1v-9.4c-1.8-1.1-3.1-3.1-3.1-5.3,0-3.4,2.8-6.1,6.1-6.1s6.1,2.8,6.1,6.1-1.2,4.3-3.1,5.3Z"/>
</svg>